<?xml version="1.0" encoding="UTF-8" standalone="no"?>
<svg id="arcsecant_arccosecant"
   version="1.1"
   baseProfile="full"
   xmlns="http://www.w3.org/2000/svg"
   xmlns:xlink="http://www.w3.org/1999/xlink"
   xmlns:ev="http://www.w3.org/2001/xml-events"
   width="420"
   height="260">

  <title>Arcsecant Arccosecant.svg - 
     a nice plot of the arcsecant and the arccosecant function</title>
  <desc>
     Arcsecant(arcsec)-function + Arcsecant(arccsc)-function
     from Wikimedia Commons
     plot-range: -4.5 to 4.5
     plotted with cubic bezier-curves in several intervalls
     the bezier-controll-points are calculated to give a very accurate result.
     symbols in "Computer Modern" (TeX) font embedded
     created with a plain text editor using GNU/Linux

     about: http://commons.wikimedia.org/wiki/Image:Arcsecant Arccosecant.svg
     source: http://commons.wikimedia.org/
     rights: GNU Free Documentation license,
             Creative Commons Attribution ShareAlike license
  </desc>

  <defs>
    <!-- pstricks-style arrow, zoom 1.5 -->
    <marker id="Arrow" refX="2.52" refY="2.25" markerUnits="strokeWidth"
       markerWidth="6" markerHeight="4.5" orient="auto">
      <path d="M 2.52 2.25 L 0 4.5 L 6 2.25 L 0 0 z" />
    </marker>
    <!-- filled dot marker -->
    <marker id="Dot_red" refX="1" refY="1" markerUnits="strokeWidth"
       markerWidth="2" markerHeight="2" orient="auto">
      <circle cx="1" cy="1" r="1" stroke="none" fill="red" />
    </marker>
    <marker id="Dot_blue" refX="1" refY="1" markerUnits="strokeWidth"
       markerWidth="2" markerHeight="2" orient="auto">
      <circle cx="1" cy="1" r="1" stroke="none" fill="blue" />
    </marker>

    <line id="xgridline" x1="0" x2="0" y1="77.831853" y2="-140.663706"
       stroke="black" stroke-width="0.5" stroke-linecap="square" />
    <line id="ygridline" x1="-180" x2="180" y1="0" y2="-0" stroke="black"
       stroke-width="0.5" stroke-linecap="square" />
    <line id="xtick" x1="0" x2="0" y1="5" y2="-5" stroke="black"
       stroke-width="1" stroke-linecap="square" opacity="1" />
    <line id="ytick" x1="-5" x2="5" y1="0" y2="-0" stroke="black"
       stroke-width="1" stroke-linecap="square" opacity="1" />

    <!-- now the used chars in "Computer Modern" font. They are implemented
         as plain paths and not as glyphs just because it didn't work -->

    <!-- a: horiz-adv-x="500"-->
    <path id="a"
       d="M 42 0 m 291 76 c 4 -40 31 -82 78 -82 c 21 0 82 14 82 95 v 56 h -25
          v -56 c 0 -58 -25 -64 -36 -64 c -33 0 -37 45 -37 50 v 200
          c 0 42 0 81 -36 118 c -39 39 -89 55 -137 55
          c -82 0 -151 -47 -151 -113 c 0 -30 20 -47 46 -47 c 28 0 46 20 46 46
          c 0 12 -5 45 -51 46 c 27 35 76 46 108 46 c 49 0 106 -39 106 -128
          v -37 c -51 -3 -121 -6 -184 -36 c -75 -34 -100 -86 -100 -130
          c 0 -81 97 -106 160 -106 c 66 0 112 40 131 87 z M 333 76 m -7 164
          v -100 c 0 -95 -72 -129 -117 -129 c -49 0 -90 35 -90 85
          c 0 55 42 138 207 144 z"/>
    <!-- r: horiz-adv-x="391.7"-->
    <path id="r"
       d="M 28 0 m 144 78 v 154 c 0 99 42 188 118 188 c 7 0 9 0 11 -1
          c -3 -1 -23 -13 -23 -39 c 0 -28 21 -43 43 -43 c 18 0 43 12 43 44
          c 0 32 -31 61 -74 61 c -73 0 -109 -67 -123 -110 v 110 l -139 -11
          v -31 c 70 0 78 -7 78 -56 v -268 c 0 -45 -11 -45 -78 -45 v -31
          c 39 1 86 3 114 3 c 40 0 87 0 127 -3 v 31 h -21
          c -74 0 -76 11 -76 47 z"/>
    <!-- c: horiz-adv-x="444.4"-->
    <path id="c"
       d="M 34 0 m 325 386 c -41 -3 -47 -33 -47 -46 c 0 -26 18 -46 46 -46
          c 26 0 46 17 46 47 c 0 68 -76 107 -153 107
          c -125 0 -217 -108 -217 -232 c 0 -128 99 -227 215 -227
          c 134 0 166 120 166 130 c 0 10 -10 10 -13 10 c -9 0 -11 -4 -13 -10
          c -29 -93 -94 -105 -131 -105 c -53 0 -141 43 -141 204
          c 0 163 82 205 135 205 c 9 0 72 -1 107 -37 z"/>
    <!-- s: horiz-adv-x="394.4"-->
    <path id="s" fill-rule="evenodd" stroke="none"
       d="M 33 0 m 175 194 c 22 -4 104 -20 104 -92 c 0 -51 -35 -91 -113 -91
          c -84 0 -120 57 -139 142 c -3 13 -4 17 -14 17 c -13 0 -13 -7 -13 -25
          v -132 c 0 -17 0 -24 11 -24 c 5 0 6 1 25 20 c 2 2 2 4 20 23
          c 44 -42 89 -43 110 -43 c 115 0 161 67 161 139 c 0 53 -30 83 -42 95
          c -33 32 -72 40 -114 48 c -56 11 -123 24 -123 82 c 0 35 26 76 112 76
          c 110 0 115 -90 117 -121 c 1 -9 10 -9 12 -9 c 13 0 13 5 13 24 v 101
          c 0 17 0 24 -11 24 c -5 0 -7 0 -20 -12 c -3 -4 -13 -13 -17 -16
          c -38 28 -79 28 -94 28 c -122 0 -160 -67 -160 -123
          c 0 -35 16 -63 43 -85 c 32 -26 60 -32 132 -46 z"/>
    <!-- e: horiz-adv-x="444.4"-->
    <path id="e" fill-rule="evenodd" stroke="none"
       d="M 28 0 m 362 231 c 22 0 25 0 25 21 c 0 99 -54 196 -179 196
          c -116 0 -208 -103 -208 -228 c 0 -134 105 -231 220 -231
          c 122 0 167 111 167 130 c 0 10 -8 12 -13 12 c -9 0 -11 -6 -13 -14
          c -35 -103 -125 -103 -135 -103 c -50 0 -90 30 -113 67
          c -30 48 -30 114 -30 150 z M 111 231 m 1 21 c 6 149 90 174 124 174
          c 103 0 113 -135 113 -174 z"/>
    <!-- (: horiz-adv-x="388.9"-->
    <path id="parleft"
       d="M 99 0 m 232 -240 c 0 3 0 5 -17 22 c -125 126 -157 315 -157 468
          c 0 174 38 348 161 473 c 13 12 13 14 13 17 c 0 7 -4 10 -10 10
          c -10 0 -100 -68 -159 -195 c -51 -110 -63 -221 -63 -305
          c 0 -78 11 -199 66 -312 c 60 -123 146 -188 156 -188 c 6 0 10 3 10 10
          z"/>
    <!-- ): horiz-adv-x="388.9"-->
    <path id="parright"
       d="M 57 0 m 232 250 c 0 78 -11 199 -66 312 c -60 123 -146 188 -156 188
          c -6 0 -10 -4 -10 -10 c 0 -3 0 -5 19 -23 c 98 -99 155 -258 155 -467
          c 0 -171 -37 -347 -161 -473 c -13 -12 -13 -14 -13 -17
          c 0 -6 4 -10 10 -10 c 10 0 100 68 159 195 c 51 110 63 221 63 305 z"/>
    <!-- x: horiz-adv-x="527.8"-->
    <path id="x"
       d="M 29 0 m 305 302 c 6 26 29 118 99 118 c 5 0 29 0 50 -13
          c -28 -5 -48 -30 -48 -54 c 0 -16 11 -35 38 -35 c 22 0 54 18 54 58
          c 0 52 -59 66 -93 66 c -58 0 -93 -53 -105 -76 c -25 66 -79 76 -108 76
          c -104 0 -161 -129 -161 -154 c 0 -10 10 -10 12 -10 c 8 0 11 2 13 11
          c 34 106 100 131 134 131 c 19 0 54 -9 54 -67 c 0 -31 -17 -98 -54 -238
          c -16 -62 -51 -104 -95 -104 c -6 0 -29 0 -50 13 c 25 5 47 26 47 54
          c 0 27 -22 35 -37 35 c -30 0 -55 -26 -55 -58 c 0 -46 50 -66 94 -66
          c 66 0 102 70 105 76 c 12 -37 48 -76 108 -76 c 103 0 160 129 160 154
          c 0 10 -9 10 -12 10 c -9 0 -11 -4 -13 -11
          c -33 -107 -101 -131 -133 -131 c -39 0 -55 32 -55 66
          c 0 22 6 44 17 88 z"/>
    <!-- y: horiz-adv-x="527.8"-->
    <path id="y"
       d="M -3 0 m 475 336 c 24 41 53 62 102 64 l 5 31 c -31 -3 -45 -3 -74 -3
          c -26 0 -72 2 -86 3 l -6 -30 c 7 0 41 -4 41 -36
          c 0 -13 -8 -26 -13 -35 l -141 -243 l -66 268 c -1 4 -3 11 -3 15
          c 0 30 42 30 61 30 c 1 8 4 22 5 31 c -30 -1 -86 -3 -109 -3
          c -30 0 -70 1 -96 3 l -6 -31 c 61 0 66 -5 74 -36 l 86 -348
          c 2 -9 3 -13 3 -15 c 0 -3 -52 -95 -70 -119 c -23 -32 -57 -65 -98 -65
          c -12 0 -31 3 -45 18 c 35 4 47 31 47 50 c 0 26 -20 34 -36 34
          c -22 0 -50 -17 -50 -54 c 0 -41 35 -70 80 -70
          c 81 0 139 100 145 110 z"/>
    <!-- pi: horiz-adv-x="570"-->
    <path id="pi"
       d="M 27 0 m 238 373 h 113 c -33 -148 -42 -191 -42 -258
          c 0 -15 0 -42 8 -76 c 10 -44 21 -50 36 -50 c 20 0 41 18 41 38
          c 0 6 0 8 -6 22 c -29 72 -29 137 -29 165 c 0 53 7 107 18 159 h 114
          c 13 0 49 0 49 34 c 0 24 -21 24 -40 24 h -335 c -22 0 -60 0 -104 -47
          c -35 -39 -61 -85 -61 -90 c 0 -1 0 -10 12 -10 c 8 0 10 4 16 12
          c 49 77 107 77 127 77 h 57 c -32 -121 -86 -242 -128 -333
          c -8 -15 -8 -17 -8 -24 c 0 -19 16 -27 29 -27 c 30 0 38 28 50 65
          c 14 46 14 48 27 98 z"/>
    <!-- minus: horiz-adv-x="700"-->
    <path id="minus"
       d="M 83 0 m 578 230 c 14 0 33 0 33 20 c 0 20 -19 20 -33 20 h -467.2
          c -14 0 -33 0 -33 -20 c 0 -20 19 -20 33 -20 z"/>
    <!-- 1: horiz-adv-x="500"-->
    <path id="one"
       d="M 89 0 m 205 640 c 0 24 0 26 -23 26 c -62 -64 -150 -64 -182 -64 v -31
          c 20 0 79 0 131 26 v -518 c 0 -36 -3 -48 -93 -48 h -32 v -31
          c 35 3 122 3 162 3 c 40 0 127 0 162 -3 v 31 h -32
          c -90 0 -93 11 -93 48 z"/>
    <!-- 2: horiz-adv-x="500"-->
    <path id="two"
       d="M 50 0 m 399 174 h -25 c -5 -30 -12 -74 -22 -89 c -7 -8 -73 -8 -95 -8
          h -180 l 106 103 c 156 138 216 192 216 292 c 0 114 -90 194 -212 194
          c -113 0 -187 -92 -187 -181 c 0 -56 50 -56 53 -56 c 17 0 52 12 52 53
          c 0 26 -18 52 -53 52 c -8 0 -10 0 -13 -1 c 23 65 77 102 135 102
          c 91 0 134 -81 134 -163 c 0 -80 -50 -159 -105 -221 l -192 -214
          c -11 -11 -11 -13 -11 -37 h 371 z"/>
    <!-- 3: horiz-adv-x="500"-->
    <path id="three"
       d="M 42 0 m 248 352 c 82 27 140 97 140 176 c 0 82 -88 138 -184 138
          c -101 0 -177 -60 -177 -136 c 0 -33 22 -52 51 -52 c 31 0 51 22 51 51
          c 0 50 -47 50 -62 50 c 31 49 97 62 133 62 c 41 0 96 -22 96 -112
          c 0 -12 -2 -70 -28 -114 c -30 -48 -64 -51 -89 -52
          c -8 -1 -32 -3 -39 -3 c -8 -1 -15 -2 -15 -12 c 0 -11 7 -11 24 -11
          h 44 c 82 0 119 -68 119 -166 c 0 -136 -69 -165 -113 -165
          c -43 0 -118 17 -153 76 c 35 -5 66 17 66 55 c 0 36 -27 56 -56 56
          c -24 0 -56 -14 -56 -58 c 0 -91 93 -157 202 -157
          c 122 0 213 91 213 193 c 0 82 -63 160 -167 181 z"/>
    <!-- 4: horiz-adv-x="500"-->
    <path id="four"
       d="M 28 0 m 0 165 h 266 v -87 c 0 -36 -2 -47 -76 -47 h -21 v -31
          c 41 3 93 3 135 3 c 42 0 95 0 136 -3 v 31 h -21 c -74 0 -76 11 -76 47
          v 87 h 100 v 31 h -100 v 455 c 0 20 0 26 -16 26 c -9 0 -12 0 -20 -12
          l -307 -469 z M 28 196 m 272 0 h -244 l 244 373 z"/>

    <!--string expressions -->
    <g id="yl" transform="scale(0.02,-0.02)">
      <use xlink:href="#y" x="-527.8" y="0" />
    </g>
    <g id="xl" transform="scale(0.02,-0.02)">
      <use xlink:href="#x" x="-285.75" y="0" />
    </g>
    <g id="arcsecx" transform="scale(0.02,-0.02)">
      <use xlink:href="#a" x="0" y="0" />
      <use xlink:href="#r" x="500" y="0" />
      <use xlink:href="#c" x="891.7" y="0" />
      <use xlink:href="#s" x="1336.1" y="0" />
      <use xlink:href="#e" x="1730.5" y="0" />
      <use xlink:href="#c" x="2174.9" y="0" />
      <use xlink:href="#parleft" x="2619.3" y="0" />
      <use xlink:href="#x" x="3008.2" y="0" />
      <use xlink:href="#parright" x="3579.7" y="0" />
    </g>
    <g id="arccscx" transform="scale(0.02,-0.02)">
      <use xlink:href="#a" x="0" y="0" />
      <use xlink:href="#r" x="500" y="0" />
      <use xlink:href="#c" x="891.7" y="0" />
      <use xlink:href="#c" x="1336.1" y="0" />
      <use xlink:href="#s" x="1780.5" y="0" />
      <use xlink:href="#c" x="2174.9" y="0" />
      <use xlink:href="#parleft" x="2619.3" y="0" />
      <use xlink:href="#x" x="3008.2" y="0" />
      <use xlink:href="#parright" x="3579.7" y="0" />
    </g>
    <g id="xm4" transform="scale(0.02,-0.02)">
      <use xlink:href="#minus" x="-950" y="0" />
      <use xlink:href="#four" x="-250" y="0" />
    </g>
    <g id="xm3" transform="scale(0.02,-0.02)">
      <use xlink:href="#minus" x="-950" y="0" />
      <use xlink:href="#three" x="-250" y="0" />
    </g>
    <g id="xm2" transform="scale(0.02,-0.02)">
      <use xlink:href="#minus" x="-950" y="0" />
      <use xlink:href="#two" x="-250" y="0" />
    </g>
    <g id="xm1" transform="scale(0.02,-0.02)">
      <use xlink:href="#minus" x="-950" y="0" />
      <use xlink:href="#one" x="-250" y="0" />
    </g>
    <g id="x1" transform="scale(0.02,-0.02)">
      <use xlink:href="#one" x="-250" y="0" />
    </g>
    <g id="x2" transform="scale(0.02,-0.02)">
      <use xlink:href="#two" x="-250" y="0" />
    </g>
    <g id="x3" transform="scale(0.02,-0.02)">
      <use xlink:href="#three" x="-250" y="0" />
    </g>
    <g id="x4" transform="scale(0.02,-0.02)">
      <use xlink:href="#four" x="-250" y="0" />
    </g>
    <g id="ym12pi" transform="scale(0.02,-0.02)">
      <use xlink:href="#minus" x="-1870" y="0" />
      <path d="M -1090,300 h 440 v -40 h -400 v 40 z" fill="black" />
      <use xlink:href="#one" x="-1471.5" y="0"
         transform="translate(0,400) scale(0.693147,0.693147)" />
      <use xlink:href="#two" x="-1471.5" y="0"
         transform="translate(0,-300) scale(0.693147,0.693147)" />
      <use xlink:href="#pi" x="-570" y="0" />
    </g>
    <g id="y12pi" transform="scale(0.02,-0.02)">
      <path d="M -1090,300 h 440 v -40 h -400 v 40 z" fill="black" />
      <use xlink:href="#one" x="-1471.5" y="0"
         transform="translate(0,400) scale(0.693147,0.693147)" />
      <use xlink:href="#two" x="-1471.5" y="0"
         transform="translate(0,-300) scale(0.693147,0.693147)" />
      <use xlink:href="#pi" x="-570" y="0" />
    </g>
    <g id="ypi" transform="scale(0.02,-0.02)">
      <use xlink:href="#pi" x="-570" y="0" />
    </g>
  </defs>


<rect id="background" x="0" y="0" width="420" height="260" fill="white"/>


  <g transform="translate(205.5, 163.5)">
    <!-- grid -->
    <g id="grid" opacity="0.4">
      <use xlink:href="#xgridline" x="-160" y="0" />
      <use xlink:href="#xgridline" x="-120" y="0" />
      <use xlink:href="#xgridline" x="-80" y="0" />
      <use xlink:href="#xgridline" x="-40" y="0" />
      <use xlink:href="#xgridline" x="40" y="0" />
      <use xlink:href="#xgridline" x="80" y="0" />
      <use xlink:href="#xgridline" x="120" y="0" />
      <use xlink:href="#xgridline" x="160" y="0" />
      <use xlink:href="#ygridline" x="0" y="62.831853" />
      <use xlink:href="#ygridline" x="0" y="-62.831853" />
      <use xlink:href="#ygridline" x="0" y="-125.663706" />
    </g>

    <!-- label shadings -->
    <use id="xll_s" xlink:href="#xl" x="206" y="16"
       stroke="white" stroke-width="350px" stroke-linejoin="round"/>
    <use id="yll_s" xlink:href="#yl" x="-6" y="-149"
       stroke="white" stroke-width="350px" stroke-linejoin="round"/>
    <use id="arcsecxl_s" xlink:href="#arcsecx" x="-180" y="-92"
       stroke="white" stroke-width="350px" stroke-linejoin="round"/>
    <use id="arccscxl_s" xlink:href="#arccscx" x="-180" y="39"
       stroke="white" stroke-width="350px" stroke-linejoin="round"/>
    <g id="xmlabels_s" transform="translate(0,-12)"
       stroke="white" stroke-width="350px" stroke-linejoin="round">
      <use xlink:href="#xm4" x="-160" y="0" />
      <use xlink:href="#xm3" x="-120" y="0" />
      <use xlink:href="#xm2" x="-80" y="0" />
      <use xlink:href="#xm1" x="-40" y="0" />
    </g>
    <g id="xlabels_s" transform="translate(0,25)"
       stroke="white" stroke-width="350px" stroke-linejoin="round">
      <use xlink:href="#x1" x="40" y="0" />
      <use xlink:href="#x2" x="80" y="0" />
      <use xlink:href="#x3" x="120" y="0" />
      <use xlink:href="#x4" x="160" y="0" />
    </g>
    <g id="ylabels_s" transform="translate(-8,7)"
       stroke="white" stroke-width="350px" stroke-linejoin="round">
      <use xlink:href="#ym12pi" x="50" y="62.831853" />
      <use xlink:href="#y12pi" x="0" y="-62.831853" />
      <use xlink:href="#ypi" x="0" y="-125.663706" />
    </g>
    <!-- labels -->
    <use id="xll" xlink:href="#xl" x="206" y="16"/>
    <use id="yll" xlink:href="#yl" x="-6" y="-150"/>
    <use id="arcsecxl" xlink:href="#arcsecx" x="-180" y="-92"/>
    <use id="arccscxl" xlink:href="#arccscx" x="-180" y="39"/>
    <g id="xmlabels" transform="translate(0,-12)">
      <use xlink:href="#xm4" x="-160" y="0" />
      <use xlink:href="#xm3" x="-120" y="0" />
      <use xlink:href="#xm2" x="-80" y="0" />
      <use xlink:href="#xm1" x="-40" y="0" />
    </g>
    <g id="xlabels" transform="translate(0,25)">
      <use xlink:href="#x1" x="40" y="0" />
      <use xlink:href="#x2" x="80" y="0" />
      <use xlink:href="#x3" x="120" y="0" />
      <use xlink:href="#x4" x="160" y="0" />
    </g>
    <g id="ylabels" transform="translate(-8,7)">
      <use xlink:href="#ym12pi" x="50" y="62.831853" />
      <use xlink:href="#y12pi" x="0" y="-62.831853" />
      <use xlink:href="#ypi" x="0" y="-125.663706" />
    </g>

    <!-- ticks -->
    <g id="ticks">
      <use xlink:href="#xtick" x="-160" y="0" />
      <use xlink:href="#xtick" x="-120" y="0" />
      <use xlink:href="#xtick" x="-80" y="0" />
      <use xlink:href="#xtick" x="-40" y="0" />
      <use xlink:href="#xtick" x="40" y="0" />
      <use xlink:href="#xtick" x="80" y="0" />
      <use xlink:href="#xtick" x="120" y="0" />
      <use xlink:href="#xtick" x="160" y="0" />
      <use xlink:href="#ytick" x="0" y="62.831853" />
      <use xlink:href="#ytick" x="0" y="-62.831853" />
      <use xlink:href="#ytick" x="0" y="-125.663706" />
    </g>

    <!-- axes -->
    <line id="x-axis" x1="-200.5" x2="200.5" y1="0" y2="0" stroke="black"
       stroke-width="2" stroke-linecap="square" marker-end="url(#Arrow)" />
    <line id="y-axis" x1="0" x2="0" y1="90.5" y2="-150.5" stroke="black"
       stroke-width="2" stroke-linecap="square" marker-end="url(#Arrow)" />


    <!-- the controll points lie on the tangents of the function.
         they are furthermore positioned in a way to minimize the average
         quadratic distance between the bezier-curve and the function. -->

    <!-- arccosecant curve -->
    <g transform="scale(40, -40)">
      <g transform="translate(0,1.570796) scale(1,-1)">
        <path id="arcsecant-bow_blue" fill="none" marker-start="url(#Dot_blue)"
           stroke="blue" stroke-width="0.08px" stroke-linecap="butt"
           stroke-dasharray="0.3, 0.05"
           d="M 1,0
              C 1.000000,0.100987 1.015309,0.206649 1.05,0.309845
              C 1.079147,0.396551 1.116464,0.465125 1.15,0.516475
              C 1.196884,0.588265 1.249448,0.646347 1.30,0.693160
              C 1.361525,0.750135 1.429207,0.798856 1.50,0.841069
              C 1.592487,0.896217 1.693837,0.942358 1.80,0.981765
              C 1.929417,1.029804 2.066353,1.067934 2.20,1.098934
              C 2.385057,1.141860 2.587647,1.176591 2.80,1.205589
              C 3.076403,1.243334 3.381239,1.272938 3.70,1.297123
              C 3.961532,1.316965 4.232954,1.333178 4.50,1.346703" />
      </g>
      <use transform="translate(0,-1.570796) scale(-1,1)" x="0" y="0"
         xlink:href="#arcsecant-bow_blue" />
    </g>
    <!-- arcsecant curve -->
    <g transform="scale(40, -40)">
      <g transform="translate(0,0) scale(1,1)">
        <path id="arcsecant-bow" fill="none" marker-start="url(#Dot_red)"
           stroke="red" stroke-width="0.08px" stroke-linecap="butt"
           d="M 1,0
              C 1.000000,0.100987 1.015309,0.206649 1.05,0.309845
              C 1.079147,0.396551 1.116464,0.465125 1.15,0.516475
              C 1.196884,0.588265 1.249448,0.646347 1.30,0.693160
              C 1.361525,0.750135 1.429207,0.798856 1.50,0.841069
              C 1.592487,0.896217 1.693837,0.942358 1.80,0.981765
              C 1.929417,1.029804 2.066353,1.067934 2.20,1.098934
              C 2.385057,1.141860 2.587647,1.176591 2.80,1.205589
              C 3.076403,1.243334 3.381239,1.272938 3.70,1.297123
              C 3.961532,1.316965 4.232954,1.333178 4.50,1.346703" />
      </g>
      <use transform="translate(0,3.141593) scale(-1,-1)" x="0" y="0"
         xlink:href="#arcsecant-bow" />
    </g>
  </g>
</svg>

