<?xml version="1.0" encoding="UTF-8" standalone="no"?>
<!-- Created with Inkscape (http://www.inkscape.org/) -->

<svg
   xmlns:dc="http://purl.org/dc/elements/1.1/"
   xmlns:cc="http://creativecommons.org/ns#"
   xmlns:rdf="http://www.w3.org/1999/02/22-rdf-syntax-ns#"
   xmlns:svg="http://www.w3.org/2000/svg"
   xmlns="http://www.w3.org/2000/svg"
   xmlns:sodipodi="http://sodipodi.sourceforge.net/DTD/sodipodi-0.dtd"
   xmlns:inkscape="http://www.inkscape.org/namespaces/inkscape"
   id="svg2"
   version="1.1"
   inkscape:version="0.48.3.1 r9886"
   width="453.5375"
   height="340.1625"
   xml:space="preserve"
   sodipodi:docname="ink_ext_XXXXXX.svgLYD90W"><sodipodi:namedview
     pagecolor="#ffffff"
     bordercolor="#666666"
     borderopacity="1"
     objecttolerance="10"
     gridtolerance="10"
     guidetolerance="10"
     inkscape:pageopacity="0"
     inkscape:pageshadow="2"
     inkscape:window-width="1920"
     inkscape:window-height="1032"
     id="namedview4"
     showgrid="false"
     inkscape:zoom="5.5502884"
     inkscape:cx="274.48076"
     inkscape:cy="71.836711"
     inkscape:window-x="0"
     inkscape:window-y="0"
     inkscape:window-maximized="1"
     inkscape:current-layer="g10" /><metadata
     id="metadata8"><rdf:RDF><cc:Work
         rdf:about=""><dc:format>image/svg+xml</dc:format><dc:type
           rdf:resource="http://purl.org/dc/dcmitype/StillImage" /><dc:title /></cc:Work></rdf:RDF></metadata><defs
     id="defs6"><clipPath
       id="clipPath32"
       clipPathUnits="userSpaceOnUse"><path
         id="path34"
         d="m 3278.39,2693 0,-170 322.04,0 0,170 -322.04,0 z" /></clipPath><clipPath
       id="clipPath46"
       clipPathUnits="userSpaceOnUse"><path
         id="path48"
         d="m 451.379,2414.31 0,-2147.279 2724.611,0 0,2147.279 -2724.611,0 z" /></clipPath><clipPath
       id="clipPath56"
       clipPathUnits="userSpaceOnUse"><path
         id="path58"
         clip-rule="evenodd"
         d="m 451.379,2414.31 0,-2147.279 2724.611,0 0,2147.279 -2724.611,0 z m 1463.961,-101.24 0,96.33 -38.29,0 0,-96.33 0,0 19.15,76.55 19.14,-76.55 z" /></clipPath><clipPath
       id="clipPath66"
       clipPathUnits="userSpaceOnUse"><path
         id="path68"
         d="m 451.379,2414.31 0,-2147.279 2724.611,0 0,2147.279 -2724.611,0 z" /></clipPath><clipPath
       id="clipPath138"
       clipPathUnits="userSpaceOnUse"><path
         id="path140"
         clip-rule="evenodd"
         d="m 451.379,2414.31 0,-2147.279 2724.611,0 0,2147.279 -2724.611,0 z m 1463.961,-1364.5 0,96.34 -38.29,0 0,-96.34 0,0 19.15,76.57 19.14,-76.57 z" /></clipPath><clipPath
       id="clipPath148"
       clipPathUnits="userSpaceOnUse"><path
         id="path150"
         d="m 451.379,2414.31 0,-2147.279 2724.611,0 0,2147.279 -2724.611,0 z" /></clipPath><clipPath
       id="clipPath168"
       clipPathUnits="userSpaceOnUse"><path
         id="path170"
         clip-rule="evenodd"
         d="m 451.379,2414.31 0,-2147.279 2724.611,0 0,2147.279 -2724.611,0 z M 2153.95,658.078 l 96.34,0 0,38.281 -96.34,0 0,0 76.56,-19.14 -76.56,-19.141 z" /></clipPath><clipPath
       id="clipPath178"
       clipPathUnits="userSpaceOnUse"><path
         id="path180"
         d="m 451.379,2414.31 0,-2147.279 2724.611,0 0,2147.279 -2724.611,0 z" /></clipPath><clipPath
       id="clipPath198"
       clipPathUnits="userSpaceOnUse"><path
         id="path200"
         clip-rule="evenodd"
         d="m 451.379,2414.31 0,-2147.279 2724.611,0 0,2147.279 -2724.611,0 z m 2621.301,-550.4 96.34,0 0,38.28 -96.34,0 0,0 76.56,-19.14 -76.56,-19.14 z" /></clipPath><clipPath
       id="clipPath208"
       clipPathUnits="userSpaceOnUse"><path
         id="path210"
         d="m 451.379,2414.31 0,-2147.279 2724.611,0 0,2147.279 -2724.611,0 z" /></clipPath></defs><g
     transform="matrix(1.25,0,0,-1.25,0,340.1625)"
     inkscape:label="aufgabe16_auge"
     inkscape:groupmode="layer"
     id="g10"><path
       d="m 189.62,38.311129 0,62.166161"
       style="fill:none;stroke:#000000;stroke-width:0.478504;stroke-linecap:butt;stroke-linejoin:miter;stroke-miterlimit:10;stroke-opacity:1;stroke-dasharray:none"
       id="path142"
       inkscape:connector-curvature="0" /><path
       d="m 191.534,98.05044 -1.914,7.657 -1.915,-7.657 3.829,0"
       style="fill:#000000;fill-opacity:1;fill-rule:evenodd;stroke:none"
       id="path152"
       inkscape:connector-curvature="0" /><path
       d="m 191.534,98.05044 -1.914,7.657 -1.915,-7.657 3.829,0 z"
       style="fill:none;stroke:#000000;stroke-width:0.478504;stroke-linecap:butt;stroke-linejoin:miter;stroke-miterlimit:10;stroke-opacity:1;stroke-dasharray:none"
       id="path154"
       inkscape:connector-curvature="0" /><path
       d="m 178.135,90.6902 11.485,0 11.484,-22.9683"
       style="fill:none;stroke:#000000;stroke-width:0.957008;stroke-linecap:butt;stroke-linejoin:miter;stroke-miterlimit:10;stroke-opacity:1;stroke-dasharray:none"
       id="path156"
       inkscape:connector-curvature="0" /><path
       d="M 178.135,67.7219 189.62,90.6902 201.104,67.7219"
       style="fill:none;stroke:#000000;stroke-width:0.957008;stroke-linecap:butt;stroke-linejoin:miter;stroke-miterlimit:10;stroke-opacity:1;stroke-dasharray:none"
       id="path158"
       inkscape:connector-curvature="0" /><path
       d="m 178.135,67.7219 11.485,22.9683 11.484,0"
       style="fill:none;stroke:#000000;stroke-width:0.957008;stroke-linecap:butt;stroke-linejoin:miter;stroke-miterlimit:10;stroke-opacity:1;stroke-dasharray:none"
       id="path160"
       inkscape:connector-curvature="0" /><path
       d="m 178.135,67.7219 11.485,-22.968 11.484,0"
       style="fill:none;stroke:#000000;stroke-width:0.957008;stroke-linecap:butt;stroke-linejoin:miter;stroke-miterlimit:10;stroke-opacity:1;stroke-dasharray:none"
       id="path162"
       inkscape:connector-curvature="0" /><path
       d="m 168.38898,67.7219 40.18259,0"
       style="fill:none;stroke:#000000;stroke-width:0.47850397;stroke-linecap:butt;stroke-linejoin:miter;stroke-miterlimit:10;stroke-opacity:1;stroke-dasharray:none"
       id="path172"
       inkscape:connector-curvature="0" /><path
       d="m 208.05676,65.8078 7.656,1.9141 -7.656,1.914 0,-3.8281"
       style="fill:#000000;fill-opacity:1;fill-rule:evenodd;stroke:none"
       id="path182"
       inkscape:connector-curvature="0" /><path
       d="m 208.05676,65.8078 7.656,1.9141 -7.656,1.914 0,-3.8281 z"
       style="fill:none;stroke:#000000;stroke-width:0.478504;stroke-linecap:butt;stroke-linejoin:miter;stroke-miterlimit:10;stroke-opacity:1;stroke-dasharray:none"
       id="path184"
       inkscape:connector-curvature="0" /><path
       d="m 201.104,90.150362 0,-45.396462"
       style="fill:none;stroke:#000000;stroke-width:0.478504;stroke-linecap:butt;stroke-linejoin:miter;stroke-miterlimit:10;stroke-opacity:1;stroke-dasharray:3.82803;stroke-dashoffset:0"
       id="path186"
       inkscape:connector-curvature="0" /><path
       d="m 178.135,91.129729 0,-46.3732"
       style="fill:none;stroke:#000000;stroke-width:0.478504;stroke-linecap:butt;stroke-linejoin:miter;stroke-miterlimit:10;stroke-opacity:1;stroke-dasharray:3.82802995;stroke-dashoffset:0"
       id="path188"
       inkscape:connector-curvature="0" /><path
       d="m 178.135,44.7539 11.485,0 11.484,22.968"
       style="fill:none;stroke:#ff0000;stroke-width:0.957008;stroke-linecap:butt;stroke-linejoin:miter;stroke-miterlimit:10;stroke-opacity:1;stroke-dasharray:none"
       id="path190"
       inkscape:connector-curvature="0" /><path
       d="m 178.135,44.7539 11.485,0 11.484,22.968"
       style="fill:none;stroke:#000000;stroke-width:0.957008;stroke-linecap:butt;stroke-linejoin:miter;stroke-miterlimit:10;stroke-opacity:1;stroke-dasharray:none"
       id="path192"
       inkscape:connector-curvature="0" /><path
       d="m 178.135,67.7219 11.485,-22.968 11.484,22.968"
       style="fill:none;stroke:#000000;stroke-width:0.957008;stroke-linecap:butt;stroke-linejoin:miter;stroke-miterlimit:10;stroke-opacity:1;stroke-dasharray:none"
       id="path216"
       inkscape:connector-curvature="0" /><g
       id="g3737"><g
         text-anchor="start"
         word-spacing="normal"
         letter-spacing="normal"
         font-size-adjust="none"
         font-stretch="normal"
         font-weight="normal"
         font-variant="normal"
         font-style="normal"
         fill-opacity="1"
         fill-rule="evenodd"
         fill="none"
         stroke-opacity="1"
         stroke-dashoffset="0"
         stroke-dasharray="none"
         stroke-miterlimit="10.433"
         stroke-linejoin="miter"
         stroke-linecap="butt"
         stroke="black"
         xml:space="preserve"
         transform="matrix(0.485946428571,0,0,-0.485946428571,-85.040625,340.153125)"
         id="content"><path
           id="path3740"
           fill="black"
           stroke-width="0"
           d="M478.46,446.84 L478.47,446.89 L478.48,446.93 L478.49,446.98 L478.5,447.02 L478.51,447.06 L478.52,447.1 L478.53,447.14 L478.54,447.18 L478.56,447.25 L478.58,447.32 L478.6,447.39 L478.62,447.44 L478.64,447.5 L478.66,447.55 L478.68,447.6 L478.7,447.65 L478.72,447.69 L478.75,447.72 L478.77,447.76 L478.8,447.79 L478.82,447.82 L478.85,447.85 L478.89,447.87 L478.92,447.89 L478.96,447.91 L478.99,447.93 L479.03,447.94 L479.08,447.96 L479.12,447.97 L479.17,447.98 L479.22,447.99 L479.28,448 L479.34,448.01 L479.4,448.01 L479.47,448.02 L479.54,448.03 C479.71,448.06,480.93,448.06,481.63,448.06 C483.75,448.06,484.66,448.06,485.52,447.78 C487.1,447.29,487.16,446.28,487.16,445.03 C487.16,444.48,487.16,444.03,486.93,442.21 L486.85,441.82 C486.85,441.48,487.1,441.31,487.44,441.31 C487.97,441.31,488.04,441.62,488.11,442.17 L489.05,448.82 C489.05,449.32,488.63,449.32,488,449.32 H466.57 C465.71,449.32,465.63,449.32,465.39,448.59 L463.19,442.42 C463.16,442.28,463.02,441.96,463.02,441.79 C463.02,441.65,463.08,441.31,463.61,441.31 C464.07,441.31,464.13,441.48,464.35,442.14 C466.36,447.71,467.52,448.06,472.82,448.06 H474.27 C475.32,448.06,475.35,448.03,475.35,447.71 C475.35,447.68,475.35,447.51,475.21,446.98 L470.61,428.65 C470.3,427.37,470.19,427.01,466.54,427.01 C465.29,427.01,464.97,427.01,464.97,426.25 C464.97,426.15,465.04,425.76,465.57,425.76 C466.54,425.76,467.58,425.87,468.55,425.87 C469.54,425.87,470.58,425.9,471.55,425.9 C472.54,425.9,473.72,425.9,474.69,425.87 C475.63,425.82,476.68,425.76,477.61,425.76 C477.89,425.76,478.43,425.76,478.43,426.53 C478.43,427.01,478.07,427.01,476.99,427.01 C476.33,427.01,475.63,427.06,474.97,427.09 C473.79,427.18,473.72,427.32,473.72,427.75 C473.72,428,473.72,428.06,473.85,428.54 Z " /><polyline
           id="polyline3742"
           fill-rule="nonzero"
           fill="black"
           stroke-width="0"
           points="462,418 490.92,418 490.92,420.04 462,420.04 " /><path
           id="path3744"
           fill="black"
           stroke-width="0"
           d="M483.67,395.38 H482.48 C482.39,394.62,482.03,392.55,481.58,392.21 C481.31,392.01,478.62,392.01,478.14,392.01 H471.72 C475.38,395.24,476.59,396.21,478.69,397.85 C481.27,399.91,483.67,402.07,483.67,405.38 C483.67,409.6,479.98,412.18,475.52,412.18 C471.2,412.18,468.27,409.15,468.27,405.95 C468.27,404.16,469.77,403.99,470.12,403.99 C470.95,403.99,471.97,404.59,471.97,405.84 C471.97,406.46,471.72,407.68,469.91,407.68 C470.98,410.15,473.36,410.91,475,410.91 C478.48,410.91,480.3,408.21,480.3,405.38 C480.3,402.35,478.14,399.95,477.02,398.7 L468.62,390.4 C468.27,390.09,468.27,390.01,468.27,389.04 H482.62 Z " /></g></g></g></svg>