<?xml version="1.0" encoding="UTF-8" standalone="no"?>
<!-- Created with Inkscape (http://www.inkscape.org/) -->

<svg
   xmlns:dc="http://purl.org/dc/elements/1.1/"
   xmlns:cc="http://creativecommons.org/ns#"
   xmlns:rdf="http://www.w3.org/1999/02/22-rdf-syntax-ns#"
   xmlns:svg="http://www.w3.org/2000/svg"
   xmlns="http://www.w3.org/2000/svg"
   xmlns:sodipodi="http://sodipodi.sourceforge.net/DTD/sodipodi-0.dtd"
   xmlns:inkscape="http://www.inkscape.org/namespaces/inkscape"
   id="svg2"
   version="1.1"
   inkscape:version="0.48.3.1 r9886"
   width="453.5375"
   height="340.1625"
   xml:space="preserve"
   sodipodi:docname="aufgabe16_auge.pdf"><metadata
     id="metadata8"><rdf:RDF><cc:Work
         rdf:about=""><dc:format>image/svg+xml</dc:format><dc:type
           rdf:resource="http://purl.org/dc/dcmitype/StillImage" /><dc:title></dc:title></cc:Work></rdf:RDF></metadata><defs
     id="defs6"><clipPath
       clipPathUnits="userSpaceOnUse"
       id="clipPath32"><path
         d="m 3278.39,2693 0,-170 322.04,0 0,170 -322.04,0 z"
         id="path34" /></clipPath><clipPath
       clipPathUnits="userSpaceOnUse"
       id="clipPath46"><path
         d="m 451.379,2414.31 0,-2147.279 2724.611,0 0,2147.279 -2724.611,0 z"
         id="path48" /></clipPath><clipPath
       clipPathUnits="userSpaceOnUse"
       id="clipPath56"><path
         d="m 451.379,2414.31 0,-2147.279 2724.611,0 0,2147.279 -2724.611,0 z m 1463.961,-101.24 0,96.33 -38.29,0 0,-96.33 0,0 19.15,76.55 19.14,-76.55 z"
         clip-rule="evenodd"
         id="path58" /></clipPath><clipPath
       clipPathUnits="userSpaceOnUse"
       id="clipPath66"><path
         d="m 451.379,2414.31 0,-2147.279 2724.611,0 0,2147.279 -2724.611,0 z"
         id="path68" /></clipPath><clipPath
       clipPathUnits="userSpaceOnUse"
       id="clipPath138"><path
         d="m 451.379,2414.31 0,-2147.279 2724.611,0 0,2147.279 -2724.611,0 z m 1463.961,-1364.5 0,96.34 -38.29,0 0,-96.34 0,0 19.15,76.57 19.14,-76.57 z"
         clip-rule="evenodd"
         id="path140" /></clipPath><clipPath
       clipPathUnits="userSpaceOnUse"
       id="clipPath148"><path
         d="m 451.379,2414.31 0,-2147.279 2724.611,0 0,2147.279 -2724.611,0 z"
         id="path150" /></clipPath><clipPath
       clipPathUnits="userSpaceOnUse"
       id="clipPath168"><path
         d="m 451.379,2414.31 0,-2147.279 2724.611,0 0,2147.279 -2724.611,0 z M 2153.95,658.078 l 96.34,0 0,38.281 -96.34,0 0,0 76.56,-19.14 -76.56,-19.141 z"
         clip-rule="evenodd"
         id="path170" /></clipPath><clipPath
       clipPathUnits="userSpaceOnUse"
       id="clipPath178"><path
         d="m 451.379,2414.31 0,-2147.279 2724.611,0 0,2147.279 -2724.611,0 z"
         id="path180" /></clipPath><clipPath
       clipPathUnits="userSpaceOnUse"
       id="clipPath198"><path
         d="m 451.379,2414.31 0,-2147.279 2724.611,0 0,2147.279 -2724.611,0 z m 2621.301,-550.4 96.34,0 0,38.28 -96.34,0 0,0 76.56,-19.14 -76.56,-19.14 z"
         clip-rule="evenodd"
         id="path200" /></clipPath><clipPath
       clipPathUnits="userSpaceOnUse"
       id="clipPath208"><path
         d="m 451.379,2414.31 0,-2147.279 2724.611,0 0,2147.279 -2724.611,0 z"
         id="path210" /></clipPath></defs><sodipodi:namedview
     pagecolor="#ffffff"
     bordercolor="#666666"
     borderopacity="1"
     objecttolerance="10"
     gridtolerance="10"
     guidetolerance="10"
     inkscape:pageopacity="0"
     inkscape:pageshadow="2"
     inkscape:window-width="1920"
     inkscape:window-height="1032"
     id="namedview4"
     showgrid="false"
     inkscape:zoom="0.98116163"
     inkscape:cx="390.05115"
     inkscape:cy="39.507124"
     inkscape:window-x="0"
     inkscape:window-y="0"
     inkscape:window-maximized="1"
     inkscape:current-layer="g10" /><g
     id="g10"
     inkscape:groupmode="layer"
     inkscape:label="aufgabe16_auge"
     transform="matrix(1.25,0,0,-1.25,0,340.1625)"><path
       inkscape:connector-curvature="0"
       id="path142"
       style="fill:none;stroke:#000000;stroke-width:0.478504;stroke-linecap:butt;stroke-linejoin:miter;stroke-miterlimit:10;stroke-opacity:1;stroke-dasharray:none"
       d="m 189.62,40.464165 0,60.013125" /><path
       inkscape:connector-curvature="0"
       id="path152"
       style="fill:#000000;fill-opacity:1;fill-rule:evenodd;stroke:none"
       d="m 191.534,98.05044 -1.914,7.657 -1.915,-7.657 3.829,0" /><path
       inkscape:connector-curvature="0"
       id="path154"
       style="fill:none;stroke:#000000;stroke-width:0.478504;stroke-linecap:butt;stroke-linejoin:miter;stroke-miterlimit:10;stroke-opacity:1;stroke-dasharray:none"
       d="m 191.534,98.05044 -1.914,7.657 -1.915,-7.657 3.829,0 z" /><path
       inkscape:connector-curvature="0"
       id="path156"
       style="fill:none;stroke:#000000;stroke-width:0.957008;stroke-linecap:butt;stroke-linejoin:miter;stroke-miterlimit:10;stroke-opacity:1;stroke-dasharray:none"
       d="m 178.135,90.6902 11.485,0 11.484,-22.9683" /><path
       inkscape:connector-curvature="0"
       id="path158"
       style="fill:none;stroke:#000000;stroke-width:0.957008;stroke-linecap:butt;stroke-linejoin:miter;stroke-miterlimit:10;stroke-opacity:1;stroke-dasharray:none"
       d="M 178.135,67.7219 189.62,90.6902 201.104,67.7219" /><path
       inkscape:connector-curvature="0"
       id="path160"
       style="fill:none;stroke:#000000;stroke-width:0.957008;stroke-linecap:butt;stroke-linejoin:miter;stroke-miterlimit:10;stroke-opacity:1;stroke-dasharray:none"
       d="m 178.135,67.7219 11.485,22.9683 11.484,0" /><path
       inkscape:connector-curvature="0"
       id="path162"
       style="fill:none;stroke:#000000;stroke-width:0.957008;stroke-linecap:butt;stroke-linejoin:miter;stroke-miterlimit:10;stroke-opacity:1;stroke-dasharray:none"
       d="m 178.135,67.7219 11.485,-22.968 11.484,0" /><path
       inkscape:connector-curvature="0"
       id="path172"
       style="fill:none;stroke:#000000;stroke-width:0.47850397;stroke-linecap:butt;stroke-linejoin:miter;stroke-miterlimit:10;stroke-opacity:1;stroke-dasharray:none"
       d="m 168.38898,67.7219 40.18259,0" /><path
       inkscape:connector-curvature="0"
       id="path182"
       style="fill:#000000;fill-opacity:1;fill-rule:evenodd;stroke:none"
       d="m 208.05676,65.8078 7.656,1.9141 -7.656,1.914 0,-3.8281" /><path
       inkscape:connector-curvature="0"
       id="path184"
       style="fill:none;stroke:#000000;stroke-width:0.478504;stroke-linecap:butt;stroke-linejoin:miter;stroke-miterlimit:10;stroke-opacity:1;stroke-dasharray:none"
       d="m 208.05676,65.8078 7.656,1.9141 -7.656,1.914 0,-3.8281 z" /><path
       inkscape:connector-curvature="0"
       id="path186"
       style="fill:none;stroke:#000000;stroke-width:0.478504;stroke-linecap:butt;stroke-linejoin:miter;stroke-miterlimit:10;stroke-opacity:1;stroke-dasharray:3.82803;stroke-dashoffset:0"
       d="m 201.104,90.150362 0,-45.396462" /><path
       inkscape:connector-curvature="0"
       id="path188"
       style="fill:none;stroke:#000000;stroke-width:0.478504;stroke-linecap:butt;stroke-linejoin:miter;stroke-miterlimit:10;stroke-opacity:1;stroke-dasharray:3.82802995;stroke-dashoffset:0"
       d="m 178.135,91.129729 0,-46.3732" /><path
       inkscape:connector-curvature="0"
       id="path190"
       style="fill:none;stroke:#ff0000;stroke-width:0.957008;stroke-linecap:butt;stroke-linejoin:miter;stroke-miterlimit:10;stroke-opacity:1;stroke-dasharray:none"
       d="m 178.135,44.7539 11.485,0 11.484,22.968" /><path
       inkscape:connector-curvature="0"
       id="path192"
       style="fill:none;stroke:#000000;stroke-width:0.957008;stroke-linecap:butt;stroke-linejoin:miter;stroke-miterlimit:10;stroke-opacity:1;stroke-dasharray:none"
       d="m 178.135,44.7539 11.485,0 11.484,22.968" /><path
       inkscape:connector-curvature="0"
       id="path216"
       style="fill:none;stroke:#000000;stroke-width:0.957008;stroke-linecap:butt;stroke-linejoin:miter;stroke-miterlimit:10;stroke-opacity:1;stroke-dasharray:none"
       d="m 178.135,67.7219 11.485,-22.968 11.484,22.968" /></g></svg>